<svg id="Layer_1" data-name="Layer 1" xmlns="http://www.w3.org/2000/svg" viewBox="0 0 196.85 36"><defs><style>.cls-1{fill:#171717;}.cls-2{fill:#f4bc19;}</style></defs><path class="cls-1" d="M58.06,7.83a10,10,0,0,0-4.33-.9H45.22V28.25h5.14V21h3.28a9.24,9.24,0,0,0,6.13-1.87,6.19,6.19,0,0,0,2.24-5,7,7,0,0,0-1-3.77A6.79,6.79,0,0,0,58.06,7.83ZM56,16.3a3.16,3.16,0,0,1-2.28.75H50.36V10.9h3.43a2.87,2.87,0,0,1,2.2.9,3.49,3.49,0,0,1,.8,2.39A2.78,2.78,0,0,1,56,16.3Z"/><path class="cls-1" d="M78.31,7.92a9.73,9.73,0,0,0-9.72,0,8.56,8.56,0,0,0-3.3,3.7,12.71,12.71,0,0,0-1.14,5.53v1.2a12.14,12.14,0,0,0,1.23,5.34,8.62,8.62,0,0,0,3.29,3.59,9.35,9.35,0,0,0,4.84,1.25,9.1,9.1,0,0,0,4.85-1.3,8.54,8.54,0,0,0,3.29-3.7A12.58,12.58,0,0,0,82.81,18v-1a12.25,12.25,0,0,0-1.2-5.46A8.66,8.66,0,0,0,78.31,7.92Zm-.73,10.2a9,9,0,0,1-1.07,4.76,3.36,3.36,0,0,1-3,1.65,3.42,3.42,0,0,1-3.1-1.68,9.25,9.25,0,0,1-1-4.82l0-1.57c.15-3.86,1.51-5.8,4.09-5.8a3.42,3.42,0,0,1,3,1.65,9.06,9.06,0,0,1,1.06,4.83Z"/><path class="cls-1" d="M101,17.05a6.91,6.91,0,0,0,.9-3.69,5.69,5.69,0,0,0-2.14-4.75,9.36,9.36,0,0,0-5.93-1.68H85.46V28.25H90.6V20.71h2.78l3.77,7.54h5.51V28L98.2,19.42A6.33,6.33,0,0,0,101,17.05Zm-5-1.06a3,3,0,0,1-2.21.77H90.6V10.88h3.25a2.87,2.87,0,0,1,2.2.79,3,3,0,0,1,.75,2.16A3,3,0,0,1,96.06,16Z"/><polygon class="cls-1" points="103.21 10.9 109.5 10.9 109.5 28.25 114.64 28.25 114.64 10.9 121.04 10.9 121.04 6.93 103.21 6.93 103.21 10.9"/><polygon class="cls-1" points="135.18 6.93 131.25 16.18 127.31 6.93 121.79 6.93 128.64 20.59 128.64 28.25 133.86 28.25 133.86 20.59 140.73 6.93 135.18 6.93"/><path class="cls-1" d="M146.25,6.93l-7.82,21.32h5.49l1.23-4h7l1.24,4H159L151.08,6.93Zm.13,13.37,2.29-7.4,2.3,7.4Z"/><path class="cls-1" d="M176.08,17.05a6.91,6.91,0,0,0,.9-3.69,5.69,5.69,0,0,0-2.14-4.75,9.36,9.36,0,0,0-5.93-1.68h-8.39V28.25h5.14V20.71h2.78l3.77,7.54h5.5V28l-4.45-8.61A6.33,6.33,0,0,0,176.08,17.05Zm-5-1.06a3,3,0,0,1-2.21.77h-3.25V10.88h3.25a2.87,2.87,0,0,1,2.2.79,3,3,0,0,1,.75,2.16A3,3,0,0,1,171.12,16Z"/><path class="cls-1" d="M195.56,11.83A9,9,0,0,0,192,8.21,10,10,0,0,0,187,6.93h-6.87V28.25h7a9.92,9.92,0,0,0,5-1.32,9.1,9.1,0,0,0,3.49-3.63A11.07,11.07,0,0,0,196.85,18v-1A10.83,10.83,0,0,0,195.56,11.83Zm-4,6.21a7.69,7.69,0,0,1-1.19,4.69A4,4,0,0,1,187,24.3h-1.79V10.9H187a4.07,4.07,0,0,1,3.45,1.56,7.61,7.61,0,0,1,1.19,4.66Z"/><path class="cls-2" d="M36,12A6.68,6.68,0,0,0,31.9,5.56c-3.69-1.71-7.43-3.34-11.16-5a6.73,6.73,0,0,0-5.62.05C11.5,2.25,7.88,3.83,4.27,5.48A6.84,6.84,0,0,0,0,12c0,2,0,4,0,6s0,4,0,6a6.78,6.78,0,0,0,4.26,6.54c3.57,1.61,7.16,3.17,10.73,4.77a7,7,0,0,0,5.94,0c3.63-1.61,7.27-3.2,10.88-4.85A6.69,6.69,0,0,0,36,24.07Q36.05,18,36,12Zm-18.92-9a3.58,3.58,0,0,1,2.66.25L30.68,8c.31.14.59.34,1,.55l-1.22.55c-1.18.53-2.36,1.06-3.55,1.57a.68.68,0,0,1-.52,0L13.14,4.52C14.52,3.94,15.78,3.36,17.07,2.91ZM16.61,33c-.19-.07-.35-.12-.5-.19L5.46,28.05A4.16,4.16,0,0,1,2.78,24V12.15c0-.37.05-.74.09-1.19L16.61,17Zm-.26-19.06-12-5.32a6.28,6.28,0,0,1,.72-.45c1.5-.68,3-1.36,4.53-2a.79.79,0,0,1,.56.06c3.27,1.53,6.53,3.08,9.8,4.62l3.25,1.52c-1.32.58-2.53,1.15-3.77,1.65A3.94,3.94,0,0,1,16.35,13.91ZM33.23,24.06A4,4,0,0,1,30.72,28c-3.62,1.63-7.25,3.23-10.88,4.84a3.58,3.58,0,0,1-.43.15V17l5.76-2.47v3.22a1.39,1.39,0,0,0,1.36,1.44,1.4,1.4,0,0,0,1.41-1.44c0-1.33,0-2.65,0-4a.65.65,0,0,1,.48-.72c1.43-.61,2.84-1.25,4.26-1.88l.46-.19c0,.39.09.72.1,1.06C33.23,16.05,33.24,20.05,33.23,24.06Z"/></svg>